
<svg xmlns="http://www.w3.org/2000/svg" version="1.1" xmlns:xlink="http://www.w3.org/1999/xlink" preserveAspectRatio="none" x="0px" y="0px" width="102px" height="257px" viewBox="0 0 102 257">
<defs>
<g id="Layer0_0_FILL">
<path fill="#2176C4" stroke="none" d="
M 120.65 0
Q 99.05 0 83.75 15.3 68.45 30.6 68.45 52.25 68.45 73.85 83.75 89.15 99.05 104.45 120.65 104.45 142.3 104.45 157.6 89.15 172.9 73.85 172.9 52.25 172.9 30.6 157.6 15.3 142.3 0 120.65 0 Z"/>
</g>

<g id="Layer0_1_FILL">
<path fill="#2176C4" stroke="none" d="
M 45 -426
L 53.65 -426 60.45 -17.7 71.3 0 90.8 0 116 -22.35 115.95 -251.7 124.8 -251.7 124.9 -17.05 137.5 0 155.35 0 180.2 -21.25 187 -425.8 195.65 -425.8 192.25 -279.35 201.7 -262.2 218.9 -262.2 237.2 -279.35 241.3 -467.15 199.45 -503.4 41.75 -503.4 0 -467.05 3.65 -279 12.15 -262.6 29.6 -262.6 48.25 -279.15 45 -426 Z"/>
</g>
</defs>

<g transform="matrix( 0.4144287109375, 0, 0, 0.414459228515625, 1,1) ">
<use xlink:href="#Layer0_0_FILL"/>
</g>

<g transform="matrix( 0.4144287109375, 0, 0, 0.414459228515625, 1,255.85) ">
<use xlink:href="#Layer0_1_FILL"/>
</g>
</svg>
